<svg xmlns="http://www.w3.org/2000/svg" viewBox="0 0 96 96" role="img" aria-label="Osirix pharaonic logo">
  <defs>
    <linearGradient id="osirixGold" x1="18" y1="10" x2="78" y2="86" gradientUnits="userSpaceOnUse">
      <stop offset="0" stop-color="#f7d879"/>
      <stop offset="0.44" stop-color="#c99532"/>
      <stop offset="1" stop-color="#8b5b17"/>
    </linearGradient>
    <linearGradient id="osirixTeal" x1="24" y1="28" x2="72" y2="72" gradientUnits="userSpaceOnUse">
      <stop offset="0" stop-color="#3fc0b1"/>
      <stop offset="1" stop-color="#1d635e"/>
    </linearGradient>
    <filter id="softShadow" x="-20%" y="-20%" width="140%" height="140%">
      <feDropShadow dx="0" dy="8" stdDeviation="7" flood-color="#12221d" flood-opacity="0.26"/>
    </filter>
  </defs>

  <rect width="96" height="96" rx="24" fill="#12221d"/>
  <path d="M20 72C24 56 31 43 48 23c17 20 24 33 28 49H20Z" fill="url(#osirixGold)" opacity="0.2"/>
  <g filter="url(#softShadow)">
    <path d="M48 13 61 33H35L48 13Z" fill="url(#osirixGold)"/>
    <path d="M25 36h46l-6 11H31l-6-11Z" fill="url(#osirixGold)"/>
    <path d="M18 55c8.8-14 19.3-21 30-21s21.2 7 30 21c-8.8 14-19.3 21-30 21S26.8 69 18 55Z" fill="#fbf6ec"/>
    <path d="M24 55c7.2-9.7 15.2-14.5 24-14.5S64.8 45.3 72 55c-7.2 9.7-15.2 14.5-24 14.5S31.2 64.7 24 55Z" fill="none" stroke="url(#osirixGold)" stroke-width="5" stroke-linecap="round" stroke-linejoin="round"/>
    <circle cx="48" cy="55" r="12" fill="url(#osirixTeal)"/>
    <circle cx="48" cy="55" r="5" fill="#12221d"/>
    <path d="M31 74c7.7 6.7 26.3 6.7 34 0" fill="none" stroke="url(#osirixGold)" stroke-width="4.5" stroke-linecap="round"/>
    <path d="M38 27h20" fill="none" stroke="#fbf6ec" stroke-width="3.5" stroke-linecap="round" opacity="0.9"/>
  </g>
</svg>
